<svg width="36" height="34" viewBox="0 0 36 34" fill="none" xmlns="http://www.w3.org/2000/svg">
<path d="M10.7594 0C5.17912 0 0.638611 4.34626 0.638611 9.686V23.5198C0.638611 28.8589 5.18179 33.2032 10.7635 33.2032H25.2241C30.8051 33.2032 35.3462 28.857 35.3462 23.5172V9.68211C35.3462 4.3437 30.803 0 25.2214 0H10.7594ZM28.4047 5.31252C29.171 5.31252 29.793 5.90752 29.793 6.64065C29.793 7.37377 29.171 7.96877 28.4047 7.96877C27.6384 7.96877 27.0164 7.37377 27.0164 6.64065C27.0164 5.90752 27.6384 5.31252 28.4047 5.31252ZM17.9924 7.96877C22.9695 7.96877 27.0164 11.8403 27.0164 16.6016C27.0164 21.363 22.9688 25.2345 17.9924 25.2345C13.0153 25.2345 8.96844 21.3623 8.96844 16.6016C8.96844 11.8409 13.0153 7.96877 17.9924 7.96877ZM17.9924 10.625C14.5418 10.625 11.745 13.3005 11.745 16.6016C11.745 19.9027 14.5418 22.5782 17.9924 22.5782C21.443 22.5782 24.2398 19.9027 24.2398 16.6016C24.2398 13.3005 21.443 10.625 17.9924 10.625Z" fill="white"/>
</svg>
