<svg width="40" height="34" viewBox="0 0 40 34" fill="none" xmlns="http://www.w3.org/2000/svg">
<path d="M38.4611 0.467401C37.7947 -0.073201 36.748 -0.150551 35.6658 0.2651H35.664C34.5259 0.702001 3.44561 13.4554 2.18036 13.9765C1.95024 14.053 -0.0595817 14.7704 0.147442 16.3684C0.332253 17.8092 1.94757 18.4059 2.14482 18.4747L10.0464 21.063C10.5706 22.7324 12.5031 28.8915 12.9305 30.2073C13.1971 31.0275 13.6315 32.1053 14.393 32.3272C15.0612 32.5737 15.7258 32.3484 16.1558 32.0254L20.9867 27.7389L28.7852 33.5571L28.9709 33.6634C29.5004 33.8878 30.0078 34 30.492 34C30.8661 34 31.225 33.9328 31.568 33.7985C32.7364 33.3396 33.2038 32.2745 33.2526 32.1538L39.0777 3.18826C39.4331 1.64125 38.9391 0.854152 38.4611 0.467401ZM17.015 22.0983L14.3495 28.8983L11.6839 20.3983L32.1198 5.94822L17.015 22.0983Z" fill="white"/>
</svg>
