<svg width="32" height="34" viewBox="0 0 32 34" fill="none" xmlns="http://www.w3.org/2000/svg">
<path d="M5.02565 0L7.60161 8.90261H7.60296V13.1736H9.8332V8.90261L12.443 0H10.1952L9.25971 4.05053C8.99662 5.23323 8.82835 6.07572 8.7513 6.57709H8.68486C8.57588 5.8765 8.40552 5.02775 8.17645 4.03497L7.27351 0H5.02565ZM15.0448 3.36183C14.2881 3.36183 13.6789 3.50356 13.2145 3.79243C12.7487 4.07997 12.4075 4.53841 12.1882 5.16595C11.9702 5.79482 11.8601 6.62674 11.8601 7.66268V9.05955C11.8601 10.0842 11.9559 10.9063 12.1475 11.5239C12.3391 12.1414 12.6615 12.5967 13.1155 12.8896C13.5702 13.1824 14.1977 13.3292 14.996 13.3319C15.7727 13.3319 16.3879 13.1882 16.8412 12.9C17.2944 12.6118 17.6234 12.1578 17.8254 11.5342C18.0274 10.9107 18.1291 10.0881 18.1291 9.06215V7.66268C18.1291 6.62674 18.0249 5.79859 17.8173 5.17503C17.6098 4.55281 17.2828 4.09436 16.833 3.80151C16.3846 3.50866 15.7882 3.36183 15.0448 3.36183ZM19.3019 3.54859V10.7379C19.3019 11.6284 19.4626 12.2838 19.7791 12.7015C20.097 13.1192 20.5891 13.3293 21.2569 13.3293C22.2197 13.3293 22.9417 12.8858 23.422 11.996H23.4722L23.6688 13.1723H25.4408V3.54859H23.1753V11.1931C23.0885 11.3724 22.9552 11.5173 22.774 11.6328C22.5928 11.749 22.4058 11.8066 22.2086 11.8066C21.9775 11.8066 21.8137 11.7149 21.7151 11.5316C21.6166 11.3484 21.5674 11.0437 21.5674 10.6134V3.54859H19.3019ZM14.996 4.85338C15.3125 4.85338 15.5353 5.01126 15.6603 5.33067C15.7866 5.64876 15.8487 6.15428 15.8487 6.84557V9.84424C15.8487 10.5568 15.7852 11.0697 15.6603 11.3838C15.5353 11.6972 15.3118 11.8539 14.996 11.8559C14.6794 11.8559 14.4605 11.6979 14.3398 11.3838C14.2183 11.0697 14.1594 10.5555 14.1594 9.84424V6.84557C14.1594 6.15561 14.223 5.65009 14.3479 5.33067C14.4728 5.01259 14.6898 4.85338 14.996 4.85338ZM3.53973 15.9194C1.62318 15.9194 0.0689697 17.4062 0.0689697 19.2397V29.8647C0.0689697 31.6982 1.62318 33.1851 3.53973 33.1851H28.5292C30.4458 33.1851 32 31.6982 32 29.8647V19.2397C32 17.4062 30.4458 15.9194 28.5292 15.9194H3.53973ZM16.1172 18.4472H17.9217V22.6379H17.9353C18.097 22.335 18.3282 22.091 18.6267 21.905C18.9252 21.7191 19.2463 21.6262 19.5906 21.6262C20.0342 21.6262 20.3819 21.739 20.6332 21.9634C20.8845 22.1879 21.0685 22.5522 21.181 23.0542C21.2934 23.5569 21.3504 24.2531 21.3504 25.1437V26.4005H21.3518C21.3518 27.5858 21.2015 28.4567 20.903 29.0152C20.6045 29.5737 20.139 29.8531 19.5066 29.8531C19.154 29.8531 18.8328 29.7743 18.5426 29.6196C18.2525 29.4649 18.0376 29.2517 17.8932 28.9828H17.8512L17.6627 29.735H16.1172V18.4472ZM4.92804 18.8493H10.4745V20.2903H8.61708V29.735H6.78679V20.2903H4.92804V18.8493ZM24.7263 21.6314C25.367 21.6314 25.8598 21.7441 26.2041 21.9686C26.5463 22.1944 26.7899 22.545 26.9308 23.0192C27.0703 23.4946 27.1409 24.1519 27.1409 24.9906V26.3538V26.3551H24.0091V26.7571C24.0091 27.2685 24.0253 27.6519 24.0579 27.9063C24.0905 28.1606 24.1552 28.3484 24.2545 28.464C24.3537 28.5809 24.5065 28.6378 24.7141 28.6378C24.9938 28.6378 25.1868 28.533 25.2916 28.3265C25.3951 28.12 25.4507 27.773 25.4598 27.2889L27.0745 27.3797C27.0828 27.4474 27.088 27.5442 27.088 27.665C27.088 28.4001 26.8783 28.9516 26.4576 29.3135C26.0369 29.6781 25.4425 29.8583 24.6734 29.8583C23.7516 29.8583 23.1054 29.58 22.7333 29.0269C22.3612 28.4737 22.1774 27.6176 22.1774 26.4588V25.0697C22.1774 23.8764 22.3711 23.0055 22.755 22.455C23.1389 21.9045 23.7954 21.6314 24.7263 21.6314ZM13.1209 21.7779H14.9932V29.7312H14.9892V29.735H13.5249L13.3623 28.761H13.3216C12.9224 29.4974 12.3261 29.8647 11.5306 29.8647C10.9781 29.8647 10.5728 29.6926 10.3104 29.3459C10.0473 29.0006 9.91726 28.4572 9.91726 27.7234V21.7805H11.7909V27.6196C11.7909 27.9729 11.8317 28.229 11.9129 28.3784C11.9955 28.5305 12.1294 28.6054 12.321 28.6054C12.4828 28.6054 12.6382 28.5577 12.7874 28.4614C12.938 28.3664 13.0474 28.2444 13.1209 28.0969V21.7779ZM24.6856 22.8389C24.4864 22.8389 24.3394 22.8959 24.2436 23.0075C24.1485 23.1204 24.085 23.3044 24.0552 23.56C24.0226 23.8144 24.0064 24.2029 24.0064 24.7208V25.2915H25.3757V24.7208C25.3757 24.2095 25.3569 23.8237 25.3215 23.56C25.2868 23.2951 25.2227 23.1093 25.1276 23.001C25.0325 22.8934 24.8862 22.8389 24.6856 22.8389ZM18.7474 22.8986C18.5669 22.8986 18.3998 22.966 18.2457 23.1048C18.0923 23.2436 17.9828 23.4221 17.9203 23.6365V28.1527C18.0029 28.2915 18.1084 28.3943 18.2389 28.464C18.3694 28.5317 18.5112 28.569 18.666 28.569C18.8652 28.569 19.0225 28.5003 19.1405 28.3615C19.2585 28.2227 19.3435 27.9899 19.3913 27.6611C19.4413 27.3338 19.4659 26.8784 19.4659 26.2993V25.2747C19.4659 24.6524 19.4459 24.1724 19.4049 23.8337C19.3667 23.4963 19.2927 23.2527 19.1907 23.1113C19.0873 22.9698 18.9396 22.8986 18.7474 22.8986Z" fill="white"/>
</svg>
